<?xml version="1.0" encoding="UTF-8"?>
<!DOCTYPE svg PUBLIC "-//W3C//DTD SVG 1.1//EN" "http://www.w3.org/Graphics/SVG/1.1/DTD/svg11.dtd">
<!-- Creator: CorelDRAW 2020 (64-Bit) -->
<svg xmlns="http://www.w3.org/2000/svg" xml:space="preserve" width="1350px" height="303px" version="1.1" style="shape-rendering:geometricPrecision; text-rendering:geometricPrecision; image-rendering:optimizeQuality; fill-rule:evenodd; clip-rule:evenodd"
viewBox="0 0 2274 510.1"
 xmlns:xlink="http://www.w3.org/1999/xlink"
 xmlns:xodm="http://www.corel.com/coreldraw/odm/2003">
 <defs>
  <style type="text/css">
   <![CDATA[
    .fil1 {fill:url(#id0)}
    .fil2 {fill:url(#id1);fill-rule:nonzero}
    .fil0 {fill:url(#id2);fill-rule:nonzero}
   ]]>
  </style>
  <linearGradient id="id0" gradientUnits="userSpaceOnUse" x1="949.9" y1="-297.6" x2="1722.2" y2="518.1">
   <stop offset="0" style="stop-opacity:1; stop-color:#0DC57B"/>
   <stop offset="0.470588" style="stop-opacity:1; stop-color:#3990B0"/>
   <stop offset="1" style="stop-opacity:1; stop-color:#596BD6"/>
  </linearGradient>
  <linearGradient id="id1" gradientUnits="userSpaceOnUse" xlink:href="#id0" x1="1187.1" y1="197.6" x2="1354.7" y2="660">
  </linearGradient>
  <linearGradient id="id2" gradientUnits="userSpaceOnUse" x1="90.3" y1="25.4" x2="392.9" y2="370">
   <stop offset="0" style="stop-opacity:1; stop-color:#0DC57B"/>
   <stop offset="1" style="stop-opacity:1; stop-color:#596BD6"/>
  </linearGradient>
 </defs>
 <g id="Слой_x0020_1">
  <metadata id="CorelCorpID_0Corel-Layer"/>
  <path class="fil0" d="M116.6 0.2c-38.9,39.4 -78.1,78.5 -116.3,118.6l-0.3 250.1 116.3 118.3c116.9,0.2 234,1.4 350.9,-0.2l-0.1 -186.8 0.1 -53.9c0,-6.9 0,-13.9 0,-20.8 0,-14 -4.8,-17.4 -16.4,-17.4l-148.1 -0.1c-20.3,-0.1 -41.9,-0.6 -62.2,0.1 -10.9,0.4 -13.7,10.8 -12.9,19.3l-0.4 105.2 102.3 -0.1 0 20.6c-66.2,0.5 -132.5,0.1 -198.8,0.2l0 -219 219.3 0 43.5 -43.1c22.4,-23 45,-45.6 67.3,-68.7 1.8,-1.9 4.6,-5 5.3,-7.7 1.8,-6.2 -2.2,-13.7 -9.2,-14.3l-39 -0.5 -301.3 0.2zm232.8 331.8l97.6 -92.3 -0.2 211.2 -97.4 -97.9 0 -21zm-101.6 -91.3l71.6 72.1 -71.6 -0.5 0 -71.6zm14.7 -14.5l169.1 -0.1 -40.1 41.1 -47.6 42.1 -81.4 -83.1zm84.5 152.4l87.3 88.3 -174.7 0.3 87.4 -88.6zm-216.1 2.7l85.6 85.7 -85.7 0.1 0.1 -85.8zm21 -8.2l172.2 -0.3 -85.7 87.1 -86.5 -86.8zm-120.2 0l78.9 -0.1 0 79.1 -78.9 -79zm-12.1 -103l81.9 82.5 -82 0.6 0.1 -83.1zm-0.1 -135.9l82.4 0 -82.7 84.9 0.3 -84.9zm90.7 20.9l0.9 178 -88.7 -89.3 87.8 -88.7zm20.5 -134.6l84.9 0.1 -84.7 84.9 -0.2 -85zm131.5 -0.3l173.2 -0.2 -42.9 43.6 -44.5 45 -85.8 -88.4zm-23.9 5.6l86.8 88.1 -173.5 -0.2 86.7 -87.9zm-128 9l0.8 79.1 -75.5 -0.1 -0.9 -0.2 -0.7 -1.3 76.3 -77.5z"/>
  <path class="fil1" d="M900.5 156.3l-111.3 0c-1.1,0 -1.5,0.9 -1.5,1.9l0 47.6c0,1 0.4,1.5 1.5,1.5l61.9 0 0 69.3 -2.7 1.9c-51.4,36 -122.1,24.5 -160.1,-25.4 -39.2,-51.5 -29.7,-125.4 21.9,-164.6 39.6,-30.1 94,-32.2 135.4,-4.9 0.5,0.2 1.5,0.5 1.8,0.2l0.1 -0.1 39.6 -30.3c0.9,-0.7 0.8,-1.7 0.1,-2.6l-0.5 -0.6 -0.3 -0.2 -0.3 -0.2c-60,-48.1 -145.4,-48.8 -206.6,-2 -73.9,56.6 -88.2,162.5 -31.8,236.5 45.4,59.5 125.2,81.7 194.9,54.9 14.7,-5.9 28.5,-13.5 41.2,-23.1 5.4,-4.4 10.8,-9 15.9,-13.9l0 -1 2.3 -1.7c0.1,-0.2 0.1,-0.6 0.1,-0.8l0 -140.5c0,-0.1 0,-0.3 0,-0.4 -0.1,-0.2 -0.4,-0.4 -0.5,-0.5l-0.6 -0.5 -0.5 -0.5zm300.1 191.2l-0.5 -1 -64.6 -114.5 -8.9 -15.5 -6.1 -10.9 8.1 -1.8c24.4,-5.4 47.2,-17.1 63.4,-36.4 13.4,-16 21.2,-35.9 21.2,-56.8 0,-26.8 -12.9,-51.6 -33.2,-68.9 -24.3,-20.5 -56.7,-28.2 -87.9,-28.2l-118.7 0c-0.8,0 -2,0.7 -2,1.6l0 30.5 4.1 7.3 0 0.4 58.5 103 -62.6 0 0 192.2c0,1 0.9,1.9 2,1.9l47.5 0c0.9,0 1.6,-1.2 1.6,-1.9l0 -141.2 40.3 0 10.3 18.6 69.4 122.6 0.8 1.1 0.1 0.1c0.2,0.4 0.7,0.7 1.2,0.7l54.4 0c1.2,0 1.6,-1.4 1.6,-2.3 0,-0.2 0,-0.4 0,-0.6zm-118.4 -209.5l-41.4 -73.4 51.3 0c17.7,0 37.2,3.3 51.8,13.9 10.5,7.6 17.8,18.9 17.8,32.1 0,11.1 -5.4,21 -13.4,28.3 -10.8,9.8 -25.4,14.6 -39.5,16.5l-0.1 0 -0.1 0c-4.1,0.5 -8.3,0.9 -12.4,0.9l-3.6 0 -10.4 -18.3zm286.7 -74.2l59.5 0c0.7,0 3.9,-0.5 3.9,-1.6l0 -47.5c0,-1.3 -3,-2 -3.9,-2l-172.4 0c-1.1,0 -2,0.9 -2,2l0 47.5c0,1.1 1,1.6 2,1.6l61.5 0 0 234.8 -61.5 0c-1.1,0 -2,0.8 -2,1.9l0 47.6c0,1 0.9,1.9 2,1.9l172.4 0c0.9,0 3.9,-0.6 3.9,-1.9l0 -47.6c0,-1.3 -3,-1.9 -3.9,-1.9l-59.5 0 0 -234.8zm213.6 286.2c39.3,0.4 77.1,-13 107.4,-38 33.7,-27.8 55,-67.2 60,-110.5 2.5,-22 0.7,-44.4 -5.4,-65.8 -6.4,-22.2 -17.2,-42.8 -31.9,-60.6 -31.9,-38.9 -79.8,-61.6 -130.2,-61.6l-87 0c-0.7,0 -1.9,0.7 -1.9,1.6l0 331.3c0,1.1 0.5,3.6 1.9,3.6l87.1 0zm-0.1 -51l-37.9 0 0 -234.4 37.9 0c35.3,0 68.6,15.7 91,42.9 19.5,23.6 28.8,53.8 26.2,84.3 -2.7,31.6 -18,60.5 -42.5,80.5 -21,17.3 -47.4,27.1 -74.7,26.7zm412.2 49.5l0 -47.6c0,-1.3 -3,-1.9 -3.9,-1.9l-123.3 0 0 -282.3c0,-0.7 -0.6,-3.6 -1.6,-3.6l-47.5 0c-1.2,0 -2,2.6 -2,3.6l0 331.8c0,1 1,1.5 2,1.5l172.4 0c0.7,0 3.9,-0.5 3.9,-1.5zm223.4 -335.5l-0.1 0.1 -0.4 0.6c-0.2,0.5 -0.5,1 -0.8,1.5l-59 114 -57.9 -115.8c-0.2,-0.4 -1,-0.7 -1.4,-0.7l-52.8 0c-0.7,0 -1,0.2 -1.3,0.5l-0.7 1.3c0,0.2 0,0.4 0,0.5 0.1,0.5 0.3,1.2 0.4,1.9l84.6 168.2 -83.6 160.5 -1 1.9c0,0 0,0.1 0,0.2 0,0.9 0.4,2.3 1.6,2.3l53.6 0c0.5,0 1,-0.3 1.2,-0.7l0.3 -0.4 0.1 -0.4 71 -135.8 13.4 -26.5 88.4 -169.8 0.4 -0.6c0,-0.2 0,-0.5 0,-0.7 0,-0.8 -0.6,-2.4 -1.6,-2.4l-53.6 0c-0.3,0 -0.7,0.1 -0.8,0.3z"/>
  <path class="fil2" d="M645.7 484.8l-13.3 0 0 -60.5 13.3 0 0 22.9 23.9 -22.9 17.1 0 -28.8 27.1 33.1 33.4 -18.3 0 -27 -27.3 0 27.3zm95.7 -10.1c5.5,0 10.3,-1.9 14.1,-5.8 3.8,-3.8 5.7,-8.6 5.7,-14.4 0,-5.7 -1.9,-10.5 -5.7,-14.3 -3.8,-3.9 -8.6,-5.8 -14.1,-5.8 -5.7,0 -10.5,1.9 -14.3,5.8 -3.8,3.8 -5.7,8.6 -5.7,14.3 0,5.8 1.9,10.6 5.7,14.4 3.8,3.9 8.6,5.8 14.3,5.8zm0 11.7c-9.7,0 -17.7,-3.1 -24,-9.2 -6.2,-6.2 -9.3,-13.7 -9.3,-22.7 0,-8.9 3.1,-16.4 9.3,-22.5 6.3,-6.2 14.3,-9.3 24,-9.3 9.5,0 17.4,3.1 23.7,9.3 6.3,6.1 9.4,13.6 9.4,22.5 0,8.9 -3.1,16.4 -9.4,22.7 -6.3,6.1 -14.2,9.2 -23.7,9.2zm75.1 -1.6l-13.3 0 0 -60.5 13.3 0 0 23.7 30.7 0 0 -23.7 13.3 0 0 60.5 -13.3 0 0 -25.1 -30.7 0 0 25.1zm105.4 1.6c-9.2,0 -16.9,-3 -23.2,-9 -6.3,-6.1 -9.5,-13.7 -9.5,-23 0,-9.3 3.2,-16.9 9.5,-22.8 6.4,-5.9 14.2,-8.9 23.3,-8.9 6.9,0 13,1.4 18.2,4.2l0 11.5c-5.5,-2.7 -10.9,-4 -16.2,-4 -6.1,0 -11.2,1.9 -15.3,5.7 -4.1,3.8 -6.2,8.7 -6.2,14.4 0,5.8 2.1,10.7 6.2,14.5 4.1,3.8 9.2,5.7 15.3,5.7 6.4,0 12.2,-1.5 17.2,-4.5l0 11.3c-5.7,3.3 -12.2,4.9 -19.3,4.9zm76.5 -1.6l-13.3 0 0 -48.8 -20.5 0 0 -11.7 54.1 0 0 11.7 -20.3 0 0 48.8zm81.3 -62.1c8.5,0 15.6,3.1 21.1,9.3 5.5,6 8.2,13.6 8.2,22.6 0,9 -2.7,16.5 -8.2,22.6 -5.5,6.1 -12.6,9.2 -21.1,9.2 -9.3,0 -16.5,-3.3 -21.6,-9.8l0 32.9 -13.3 0 0 -85.2 13.3 0 0 8.3c5.1,-6.6 12.3,-9.9 21.6,-9.9zm-3.6 11.7c-3.9,0 -7.4,1 -10.6,3 -3.2,2 -5.7,4.7 -7.4,7.9l0 18.7c1.7,3.1 4.2,5.7 7.5,7.7 3.2,2 6.7,3 10.5,3 5.6,0 10.2,-1.9 13.9,-5.8 3.7,-3.9 5.6,-8.7 5.6,-14.3 0,-5.6 -1.9,-10.4 -5.6,-14.3 -3.7,-3.9 -8.3,-5.9 -13.9,-5.9zm65.8 75.7c-5,0 -8.7,-0.7 -11,-2l0 -11.7c2.7,1.3 5.6,2 8.8,2 3.3,0 6.2,-1.3 8.5,-3.7 2.4,-2.5 4.7,-6.5 7.1,-12.1l-26.5 -58.3 14.8 0 18.3 42.7 17.6 -42.7 14.4 0 -29 67.1c-5.4,12.4 -13.1,18.7 -23,18.7zm91.5 -25.3l-13.3 0 0 -60.5 13.3 0 0 22.9 24 -22.9 17 0 -28.8 27.1 33.1 33.4 -18.3 0 -27 -27.3 0 27.3zm96.8 0l-13.3 0 0 -48.8 -20.5 0 0 -11.7 54.1 0 0 11.7 -20.3 0 0 48.8zm74.3 -10.1c5.5,0 10.3,-1.9 14.1,-5.8 3.8,-3.8 5.7,-8.6 5.7,-14.4 0,-5.7 -1.9,-10.5 -5.7,-14.3 -3.8,-3.9 -8.6,-5.8 -14.1,-5.8 -5.7,0 -10.5,1.9 -14.3,5.8 -3.8,3.8 -5.7,8.6 -5.7,14.3 0,5.8 1.9,10.6 5.7,14.4 3.8,3.9 8.6,5.8 14.3,5.8zm0 11.7c-9.7,0 -17.7,-3.1 -24,-9.2 -6.2,-6.2 -9.3,-13.7 -9.3,-22.7 0,-8.9 3.1,-16.4 9.3,-22.5 6.3,-6.2 14.3,-9.3 24,-9.3 9.5,0 17.4,3.1 23.7,9.3 6.3,6.1 9.4,13.6 9.4,22.5 0,8.9 -3.1,16.4 -9.4,22.7 -6.3,6.1 -14.2,9.2 -23.7,9.2zm96.7 -63.7c8.5,0 15.6,3.1 21.1,9.3 5.5,6 8.2,13.6 8.2,22.6 0,9 -2.7,16.5 -8.2,22.6 -5.5,6.1 -12.6,9.2 -21.1,9.2 -9.3,0 -16.5,-3.3 -21.6,-9.8l0 32.9 -13.3 0 0 -85.2 13.3 0 0 8.3c5.1,-6.6 12.3,-9.9 21.6,-9.9zm-3.6 11.7c-3.9,0 -7.4,1 -10.6,3 -3.2,2 -5.7,4.7 -7.4,7.9l0 18.7c1.7,3.1 4.2,5.7 7.5,7.7 3.2,2 6.7,3 10.5,3 5.6,0 10.2,-1.9 13.9,-5.8 3.7,-3.9 5.6,-8.7 5.6,-14.3 0,-5.6 -1.9,-10.4 -5.6,-14.3 -3.7,-3.9 -8.3,-5.9 -13.9,-5.9zm154 52c-9.1,0 -16.8,-3 -23.1,-9 -6.4,-6.1 -9.5,-13.7 -9.5,-23 0,-9.3 3.1,-16.9 9.5,-22.8 6.4,-5.9 14.1,-8.9 23.3,-8.9 6.9,0 12.9,1.4 18.2,4.2l0 11.5c-5.5,-2.7 -10.9,-4 -16.3,-4 -6,0 -11.1,1.9 -15.3,5.7 -4.1,3.8 -6.1,8.7 -6.1,14.4 0,5.8 2,10.7 6.1,14.5 4.2,3.8 9.3,5.7 15.3,5.7 6.5,0 12.3,-1.5 17.3,-4.5l0 11.3c-5.8,3.3 -12.2,4.9 -19.4,4.9zm106.6 -11.9c1.3,0 2.5,-0.3 3.6,-0.9l0 10.1c-1.8,1.3 -4.4,2 -7.8,2 -6.9,0 -11.1,-2.9 -12.7,-8.6 -5.5,6.2 -12.9,9.3 -22.3,9.3 -6.5,0 -11.9,-1.8 -16.2,-5.4 -4.3,-3.5 -6.4,-8.5 -6.4,-14.9 0,-6.4 2.3,-11.3 7,-14.8 4.6,-3.5 10.3,-5.3 17.2,-5.3 7.3,0 13.8,1.6 19.4,4.7l0 -3.3c0,-8.8 -5.9,-13.2 -17.8,-13.2 -6.9,0 -13.2,1.8 -19.1,5.4l0 -11.7c6,-3.5 13.4,-5.2 22.1,-5.2 8.5,0 15.3,2 20.4,6.1 5,4.1 7.6,9.8 7.6,17.1l0 22.5c0,1.9 0.4,3.4 1.4,4.5 0.9,1 2.1,1.6 3.6,1.6zm-18.2 -6.8l0 -7.4c-5.1,-2.9 -10.5,-4.3 -16.2,-4.3 -4.4,0 -7.9,0.8 -10.4,2.4 -2.5,1.7 -3.7,4 -3.7,7 0,3.1 1.1,5.5 3.5,7.1 2.3,1.6 5.5,2.5 9.5,2.5 3.3,0 6.5,-0.7 9.6,-2.1 3.2,-1.3 5.7,-3.1 7.7,-5.2zm61.5 17.1l-12.5 0 0 -60.5 13.3 0 0 41.1 32.7 -41.1 12.4 0 0 60.5 -13.3 0 0 -41.1 -32.6 41.1zm32 -74.2c-3.9,3.7 -9,5.6 -15.3,5.6 -6.2,0 -11.3,-1.9 -15.3,-5.6 -3.9,-3.7 -5.9,-8.6 -6,-14.8l11.2 0c0,3 0.9,5.4 2.8,7.3 1.8,1.9 4.2,2.8 7.2,2.8 2.9,0 5.4,-0.9 7.2,-2.8 1.8,-1.9 2.8,-4.3 2.9,-7.3l11.3 0c0,6.2 -2.1,11.1 -6,14.8zm73.7 74.2l-13.3 0 0 -48.8 -20.5 0 0 -11.7 54.1 0 0 11.7 -20.3 0 0 48.8zm74.3 -10.1c5.6,0 10.3,-1.9 14.1,-5.8 3.8,-3.8 5.7,-8.6 5.7,-14.4 0,-5.7 -1.9,-10.5 -5.7,-14.3 -3.8,-3.9 -8.5,-5.8 -14.1,-5.8 -5.7,0 -10.5,1.9 -14.3,5.8 -3.8,3.8 -5.7,8.6 -5.7,14.3 0,5.8 1.9,10.6 5.7,14.4 3.8,3.9 8.6,5.8 14.3,5.8zm0 11.7c-9.7,0 -17.7,-3.1 -23.9,-9.2 -6.3,-6.2 -9.4,-13.7 -9.4,-22.7 0,-8.9 3.1,-16.4 9.4,-22.5 6.2,-6.2 14.2,-9.3 23.9,-9.3 9.5,0 17.4,3.1 23.7,9.3 6.3,6.1 9.4,13.6 9.4,22.5 0,8.9 -3.1,16.4 -9.4,22.7 -6.3,6.1 -14.2,9.2 -23.7,9.2zm96.7 -1.6l-34.9 0 0 -60.5 33 0c6,0 10.6,1.4 14,4.3 3.3,2.8 5,6.5 5,11.1 0,3 -0.7,5.6 -2.1,8 -1.5,2.3 -3.3,4 -5.6,5.1 7.8,2.3 11.8,7.5 11.8,15.5 0,5.2 -1.9,9.2 -5.6,12.1 -3.8,3 -9,4.4 -15.6,4.4zm-21.6 -25.6l0 14.9 19.2 0c3.2,0 5.6,-0.7 7.4,-2 1.7,-1.3 2.6,-3.1 2.6,-5.4 0,-2.4 -0.9,-4.2 -2.6,-5.5 -1.8,-1.4 -4.2,-2 -7.4,-2l-19.2 0zm0 -24.2l0 13.5 16.5 0c2.9,0 5.1,-0.6 6.8,-1.8 1.6,-1.2 2.4,-2.8 2.4,-4.9 0,-4.5 -3.1,-6.8 -9.2,-6.8l-16.5 0z"/>
 </g>
</svg>
