<?xml version="1.0" encoding="UTF-8"?>
<!DOCTYPE svg PUBLIC "-//W3C//DTD SVG 1.1//EN" "http://www.w3.org/Graphics/SVG/1.1/DTD/svg11.dtd">
<!-- Creator: CorelDRAW 2020 (64-Bit) -->
<svg xmlns="http://www.w3.org/2000/svg" xml:space="preserve" width="335px" height="168px" version="1.1" style="shape-rendering:geometricPrecision; text-rendering:geometricPrecision; image-rendering:optimizeQuality; fill-rule:evenodd; clip-rule:evenodd"
viewBox="0 0 300.5 150.5"
 xmlns:xlink="http://www.w3.org/1999/xlink"
 xmlns:xodm="http://www.corel.com/coreldraw/odm/2003">
 <defs>
  <style type="text/css">
   <![CDATA[
    .fil1 {fill:white}
    .fil0 {fill:url(#id0)}
   ]]>
  </style>
  <linearGradient id="id0" gradientUnits="userSpaceOnUse" x1="136.4" y1="259.6" x2="256.5" y2="8.9">
   <stop offset="0" style="stop-opacity:1; stop-color:#1221C2"/>
   <stop offset="0.309804" style="stop-opacity:0.478431; stop-color:#03F3F2"/>
   <stop offset="0.501961" style="stop-opacity:1; stop-color:#1113FC"/>
   <stop offset="1" style="stop-opacity:1; stop-color:#F94AFD"/>
  </linearGradient>
 </defs>
 <g id="Слой_x0020_1">
  <metadata id="CorelCorpID_0Corel-Layer"/>
  <g id="_2965948199024">
   <path class="fil0" d="M150.2 150.5c73.1,0 144.2,-67.1 150.3,-75.2 -8,-9.3 -73.7,-75.3 -150.3,-75.3 -76.5,0 -141.1,64.9 -150.2,75.3 8.3,8.1 77.1,75.2 150.2,75.2zm20.7 -119.7c16.8,7.8 28.3,24.8 28.3,44.5 0,19.3 -11.2,36.1 -27.5,44 2,-0.4 4,-0.9 5.9,-1.4 23.7,-6 46.8,-18.6 66.7,-32.6 3.9,-2.7 8.9,-6.3 13.9,-10.3 -7.8,-6.3 -16.1,-12.2 -22.9,-16.7 -19.2,-12.5 -41.4,-23.2 -64.4,-27.5zm-42.3 88.4c-16.2,-8 -27.4,-24.7 -27.4,-43.9 0,-19.8 11.7,-36.8 28.5,-44.5 -22.9,4.1 -44.9,14.6 -64.1,27.1 -7.1,4.6 -15.2,10.4 -22.9,16.7 24.9,19.9 55.9,38.2 85.9,44.6z"/>
   <polygon class="fil1" points="157.7,13 131.4,85.2 152.5,82.4 142.8,138.9 168.3,68.6 147,71.4 "/>
  </g>
 </g>
</svg>
